<?xml version="1.0" encoding="UTF-8"?>
<svg version="1.1" xmlns="http://www.w3.org/2000/svg" width="512" height="512">
<path d="M0 0 C0.73552473 -0.00538554 1.47104946 -0.01077108 2.22886282 -0.01631981 C4.67069948 -0.03052148 7.11198803 -0.02351529 9.55384827 -0.01637268 C11.31380648 -0.02208033 13.073761 -0.02904612 14.83370972 -0.03717041 C19.59820478 -0.05507299 24.36251538 -0.05393893 29.12703395 -0.04822803 C33.11058164 -0.04513208 37.09409411 -0.05123313 41.07763678 -0.05726677 C50.47794035 -0.07130078 59.87815303 -0.06975997 69.27845764 -0.05836487 C78.96358476 -0.04688366 88.64843496 -0.06096196 98.3335256 -0.08776134 C106.66159159 -0.10993958 114.98957079 -0.11655096 123.31766421 -0.11068493 C128.28608208 -0.10731937 133.25432245 -0.10970383 138.22271538 -0.12693596 C142.89566802 -0.14243695 147.56821133 -0.13841462 152.24114799 -0.11963081 C153.95152205 -0.11595371 155.66192665 -0.11902769 157.37227249 -0.1295166 C169.65834372 -0.19908372 178.31024252 1.00488852 187.54627991 9.6728363 C194.41744719 16.5283873 196.58125227 23.60198591 196.67092222 33.20777035 C196.66491217 34.17149846 196.65890213 35.13522657 196.65270996 36.12815857 C196.66078827 37.69825227 196.66078827 37.69825227 196.66902977 39.30006504 C196.6832771 42.78902689 196.67621345 46.27760762 196.66908264 49.7665863 C196.67478782 52.27544967 196.68175265 54.78431043 196.68988037 57.29316711 C196.70594891 63.38906848 196.70791612 69.48483031 196.70266747 75.58074641 C196.69861828 80.53708232 196.70007818 85.49338782 196.70541573 90.44972229 C196.70616415 91.15639685 196.70691257 91.86307141 196.70768367 92.59116036 C196.70921522 94.02696698 196.71075356 95.46277359 196.71229864 96.89858019 C196.72601011 110.34729524 196.72059517 123.79595204 196.70911343 137.24466574 C196.69917901 149.53740469 196.71212767 161.82999317 196.73604762 174.12270892 C196.7604519 186.75998163 196.77004344 199.3971843 196.76339489 212.03448009 C196.75990606 219.12337815 196.76211264 226.21216046 196.77964592 233.30104065 C196.79592701 239.96599615 196.79116576 246.6306185 196.77234077 253.29558182 C196.76865352 255.73967051 196.77176728 258.18378048 196.78222656 260.62784958 C196.79542784 263.96796484 196.78389541 267.30712704 196.76623535 270.64720154 C196.77584036 271.61092965 196.78544536 272.57465776 196.79534143 273.56758976 C196.69173242 283.11232601 192.99414918 291.55791156 186.26502991 298.38768005 C178.41778136 304.32578256 170.57886541 306.63238989 160.80253601 306.64837646 C159.74318456 306.65411479 159.74318456 306.65411479 158.66243207 306.65996903 C156.31976304 306.67020466 153.97734344 306.66632506 151.63465881 306.66233826 C149.94528987 306.66668998 148.2559229 306.67187466 146.56655884 306.67782593 C141.99417053 306.69117791 137.42186507 306.69179882 132.84946108 306.68926263 C129.02507536 306.6881903 125.20070622 306.693083 121.37632406 306.69786805 C112.34995549 306.70895017 103.32362854 306.70940798 94.29725647 306.70335388 C85.00186818 306.69731497 75.70663129 306.70962598 66.41126883 306.73092395 C58.41525391 306.74856755 50.41928707 306.75453695 42.42325342 306.75128621 C37.65436138 306.74947755 32.88557735 306.7520677 28.11670303 306.76600075 C23.63012562 306.77861938 19.14378339 306.77659698 14.6572094 306.76358986 C13.01659374 306.76123327 11.37596133 306.76392566 9.73536491 306.77221298 C-3.9162024 306.83616644 -14.37835056 305.63060408 -24.45762634 295.6884613 C-31.88443693 287.56823843 -32.88508773 278.98618336 -32.87541199 268.36273193 C-32.87838311 267.34462738 -32.88135423 266.32652282 -32.88441539 265.27756661 C-32.8930961 261.86154469 -32.89461012 258.44555784 -32.89610291 255.02952576 C-32.90073153 252.5819898 -32.90575625 250.13445456 -32.91114807 247.68692017 C-32.92427 241.03386309 -32.93075353 234.38081973 -32.93515873 227.72775292 C-32.93792417 223.57089311 -32.94216209 219.4140356 -32.9466629 215.25717735 C-32.95885362 203.74054899 -32.96915315 192.22392247 -32.97253799 180.70728779 C-32.97275756 179.9705762 -32.97297713 179.23386461 -32.97320335 178.47482843 C-32.97342162 177.73638653 -32.9736399 176.99794463 -32.97386479 176.23712569 C-32.97430825 174.74084238 -32.97475482 173.24455907 -32.97520447 171.74827576 C-32.9754259 171.00607268 -32.97564733 170.26386959 -32.97587547 169.49917551 C-32.97982172 157.47848179 -32.99727134 145.45784876 -33.02056399 133.43717847 C-33.04430334 121.08593394 -33.05674103 108.73471982 -33.05790591 96.38345212 C-33.05882125 89.45264612 -33.06453784 82.52191919 -33.08272552 75.59113503 C-33.09977845 69.06994088 -33.10135984 62.54887003 -33.09258652 56.02765083 C-33.09181634 53.63719532 -33.09615634 51.24673173 -33.10604477 48.85629654 C-33.11877497 45.58653534 -33.1128812 42.31730428 -33.10246277 39.04754639 C-33.11051917 38.10734833 -33.11857558 37.16715026 -33.12687612 36.19846135 C-33.05147781 26.04203609 -30.35875523 17.19268195 -23.73497009 9.38768005 C-16.89573451 2.90244217 -9.39277008 0.01744488 0 0 Z M39.25331116 49.5478363 C32.06245256 58.14255016 28.49473852 68.33714788 27.26502991 79.38768005 C27.18124084 80.08893005 27.09745178 80.79018005 27.01112366 81.51268005 C26.1963594 95.38995518 32.30982056 109.69493901 41.01502991 120.13768005 C51.15455924 130.89172632 64.50142777 137.33313704 79.26502991 138.38768005 C93.2542979 138.52482974 104.98815067 134.55176784 116.26502991 126.38768005 C117.87377991 125.24299255 117.87377991 125.24299255 119.51502991 124.07518005 C130.33252577 113.50353637 136.05179508 99.14302815 136.57752991 84.13768005 C136.21390642 68.9724415 131.2076659 55.59552148 120.67127991 44.63768005 C108.41096393 33.17348849 94.20594354 28.8340675 77.70252991 29.10643005 C61.91991311 29.78437751 49.67182614 38.36057653 39.25331116 49.5478363 Z M4.26502991 156.38768005 C3.59836324 159.38768005 3.59836324 159.38768005 4.26502991 162.38768005 C6.49709422 165.23548624 7.81495989 166.23765672 11.26502991 167.38768005 C13.15650401 167.48282562 15.05118999 167.51831301 16.9450531 167.52139282 C18.12834702 167.52565781 19.31164093 167.52992279 20.53079224 167.53431702 C22.48051186 167.53363724 22.48051186 167.53363724 24.46961975 167.53294373 C25.85109549 167.53593561 27.23257039 167.53933821 28.61404419 167.54312134 C32.36821923 167.55196289 36.12237148 167.55429953 39.87655592 167.55493712 C43.01023653 167.55588637 46.14391183 167.55956488 49.27759039 167.56310922 C56.67119276 167.57125448 64.06478295 167.5736934 71.45838928 167.57298279 C79.08541785 167.57238206 86.71237568 167.58293268 94.33938634 167.59872645 C100.88724487 167.61180241 107.43508028 167.61716666 113.98295176 167.61652738 C117.89380989 167.61627239 121.80460516 167.6191238 125.71545029 167.62970543 C129.39426242 167.63938728 133.07295164 167.63946503 136.75176811 167.6321888 C138.74392161 167.63064472 140.73607509 167.63898924 142.72821045 167.64762878 C143.91714401 167.6434343 145.10607758 167.63923981 146.33103943 167.63491821 C147.87795503 167.63573536 147.87795503 167.63573536 149.45612144 167.63656902 C153.69674542 167.26082003 156.40476322 166.38669943 159.20252991 163.13768005 C160.56449072 160.36104354 160.56449072 160.36104354 159.57752991 157.20018005 C158.43145166 154.3262731 158.43145166 154.3262731 156.26502991 152.38768005 C153.60039039 152.076676 153.60039039 152.076676 150.43278503 152.12025452 C149.19052155 152.11172455 147.94825806 152.10319458 146.66835022 152.09440613 C145.28407275 152.09510522 143.89979538 152.09602831 142.51551819 152.09715271 C141.06360019 152.09117104 139.61168538 152.08436634 138.15977478 152.07679749 C134.20932048 152.05909244 130.25895276 152.0544402 126.30846262 152.05316591 C123.01318469 152.05126938 119.71792704 152.0439146 116.42265689 152.03682172 C108.64891275 152.02052272 100.87521495 152.01565411 93.10145569 152.01707458 C85.07728728 152.01827613 77.0533878 151.99717528 69.02928746 151.96558726 C62.14515226 151.93945067 55.26110503 151.9287062 48.37692058 151.9299854 C44.26312307 151.93049585 40.14956438 151.92476741 36.03581619 151.9036293 C32.16648951 151.88429097 28.29763051 151.8840918 24.42828751 151.89866257 C23.0076835 151.90075735 21.58705057 151.89600993 20.16649628 151.88394165 C18.22813693 151.86854036 16.2896188 151.88017308 14.35124207 151.89320374 C13.26612398 151.8921142 12.1810059 151.89102467 11.06300545 151.88990211 C7.57541524 152.51036696 6.39516969 153.60498227 4.26502991 156.38768005 Z M20.26502991 204.38768005 C17.94965395 207.204762 17.94965395 207.204762 18.45252991 210.38768005 C19.30584756 213.53839139 19.73441501 214.45737261 22.26502991 216.38768005 C24.53952435 216.84122368 24.53952435 216.84122368 27.11657715 216.77536011 C28.11620483 216.78526474 29.11583252 216.79516937 30.14575195 216.80537415 C31.24141983 216.8008725 32.33708771 216.79637085 33.46595764 216.79173279 C34.62064545 216.79859604 35.77533325 216.80545929 36.9650116 216.81253052 C40.79300635 216.83087536 44.62059426 216.8269499 48.44862366 216.8212738 C50.43226169 216.82468043 52.41589993 216.82809406 54.39953572 216.83262688 C60.63770453 216.84667962 66.87573643 216.84510489 73.11390686 216.83372498 C79.5493409 216.82224461 85.98435817 216.83631587 92.41973728 216.86312145 C97.94510981 216.88527475 103.47035148 216.89191666 108.99576527 216.88604504 C112.29579121 216.88267307 115.59549054 216.88680949 118.89549065 216.90229607 C122.57554728 216.91713159 126.25468041 216.90658243 129.93470764 216.88938904 C131.02835129 216.89905701 132.12199493 216.90872498 133.2487793 216.91868591 C134.25122681 216.90885178 135.25367432 216.89901764 136.28649902 216.8888855 C137.15646232 216.88867621 138.02642561 216.88846693 138.92275143 216.8882513 C142.07262828 216.2150872 143.28164443 214.87389937 145.26502991 212.38768005 C145.93169657 209.38768005 145.93169657 209.38768005 145.26502991 206.38768005 C143.0329656 203.53987387 141.71509992 202.53770339 138.26502991 201.38768005 C136.7282569 201.29240629 135.18770843 201.25279629 133.647995 201.24723816 C132.70029739 201.24152802 131.75259979 201.23581787 130.77618408 201.22993469 C129.73819168 201.22881683 128.70019928 201.22769897 127.63075256 201.22654724 C126.53619247 201.22158234 125.44163239 201.21661743 124.31390381 201.21150208 C120.685627 201.1968725 117.05739389 201.19007745 113.42909241 201.18455505 C110.9118703 201.1788047 108.39464822 201.17304696 105.87742615 201.1672821 C101.27169543 201.15811422 96.66597728 201.15181453 92.06023848 201.14878535 C85.28481008 201.14430445 78.5095834 201.12675328 71.73421633 201.09778476 C65.86252612 201.07355271 59.99090318 201.06584054 54.11916733 201.0641098 C51.62247494 201.0610794 49.12578348 201.05303791 46.62912369 201.03992462 C43.13862506 201.02289864 39.64861944 201.0247361 36.15809631 201.03123474 C35.12415237 201.02201996 34.09020844 201.01280518 33.02493286 201.00331116 C26.13191373 201.00153223 26.13191373 201.00153223 20.26502991 204.38768005 Z M5.26502991 254.38768005 C3.8446117 257.22851647 3.95050718 259.24245283 4.26502991 262.38768005 C6.37659723 265.16990397 7.56931377 266.26226264 11.04180145 266.8882513 C12.11694756 266.88846059 13.19209366 266.88866987 14.29981995 266.8888855 C15.53641861 266.89871964 16.77301727 266.90855377 18.04708862 266.91868591 C19.41466035 266.9093142 20.78222933 266.8995349 22.14979553 266.88938904 C23.59215828 266.89317266 25.03451739 266.89867307 26.47686768 266.90576172 C30.39221818 266.91972819 34.30712983 266.90853849 38.22245598 266.8920505 C42.31921105 266.87820401 46.41594055 266.88465962 50.51271057 266.88818359 C57.39262467 266.89088604 64.27236434 266.87740723 71.15223694 266.85423279 C79.10712167 266.82762276 87.06171475 266.82587578 95.01662874 266.83762115 C102.66796381 266.84839922 110.31919333 266.84221166 117.97052002 266.82806587 C121.22722873 266.8223063 124.48386022 266.82238851 127.74057007 266.82713127 C131.57542697 266.83190255 135.40996439 266.82179341 139.24476051 266.80017662 C140.65244787 266.79461059 142.06016593 266.7941418 143.46785545 266.79912949 C145.38865738 266.80508188 147.30949033 266.7907445 149.23023987 266.77536011 C150.84295902 266.77171526 150.84295902 266.77171526 152.48825836 266.76799679 C155.64713741 266.33534522 157.00604256 265.60663258 159.26502991 263.38768005 C160.4361344 260.52807946 160.4361344 260.52807946 160.26502991 257.38768005 C158.16474845 254.01222771 157.06300106 252.65367044 153.26502991 251.38768005 C151.34827772 251.29035795 149.42829255 251.25269991 147.50907898 251.24723816 C146.30895676 251.24152802 145.10883453 251.23581787 143.87234497 251.22993469 C141.89457314 251.2282579 141.89457314 251.2282579 139.87684631 251.22654724 C138.47566599 251.22191845 137.07448692 251.21689371 135.67330933 251.21150208 C131.86542193 251.19838284 128.05755217 251.19193417 124.24964571 251.18749142 C121.87078266 251.18456022 119.49192443 251.18045534 117.11306381 251.17598724 C109.67053043 251.16231422 102.22800805 251.15264633 94.78546298 251.14878535 C86.19323682 251.14430346 77.60116965 251.12674873 69.00899184 251.09778476 C62.36771589 251.07617396 55.7264847 251.06608141 49.08517396 251.06474423 C45.1183876 251.06369587 41.15175073 251.05778131 37.18500137 251.03992462 C33.45361956 251.02345402 29.72249979 251.02128337 25.99109459 251.03006363 C23.97030103 251.0312019 21.9495162 251.01747715 19.92877197 251.00331116 C18.12012917 251.01166489 18.12012917 251.01166489 16.27494812 251.02018738 C14.70590949 251.01798754 14.70590949 251.01798754 13.10517311 251.01574326 C9.81371822 251.4467825 7.92831483 252.43665088 5.26502991 254.38768005 Z " fill="#D15BFF" transform="translate(184.73497009277344,27.612319946289063)"/>
<path d="M0 0 C0.00238835 0.68984608 0.00477671 1.37969215 0.00723743 2.09044266 C0.06651553 18.91868346 0.14214687 35.74676463 0.23571491 52.57484818 C0.28057528 60.7129715 0.32001213 68.85105201 0.34643555 76.98925781 C0.36949502 84.08707229 0.40298089 91.18475018 0.44870156 98.28245616 C0.47252726 102.03652226 0.49132546 105.79045398 0.49761391 109.54459381 C0.50371348 113.08725675 0.52388587 116.62957634 0.55427551 120.17211151 C0.56708864 122.07344044 0.56549921 123.9748499 0.5632782 125.8762207 C0.72470713 140.82181654 4.45570933 153.92661762 14.83203125 164.96484375 C19.69243087 169.52748916 24.61835132 172.56925131 30.9375 174.625 C33.20703125 175.578125 33.20703125 175.578125 35 177 C35.9007019 179.86377015 36.14331267 182.57137932 36.421875 185.55859375 C37.92507996 194.50672596 43.34239542 204.00658146 50.19140625 209.87890625 C50.97386719 210.43449219 51.75632813 210.99007812 52.5625 211.5625 C53.32691406 212.12066406 54.09132812 212.67882812 54.87890625 213.25390625 C63.43341347 218.03971943 72.80436476 220.00425618 82.35009766 221.80908203 C84.32611206 222.19426279 86.30212639 222.57944393 88.27813792 222.96463943 C90.37756507 223.3721042 92.47779691 223.77514664 94.57832718 224.1768837 C98.96685458 225.01645613 103.35264078 225.8697805 107.73812866 226.72506714 C117.03172104 228.53558403 126.32821893 230.33094102 135.625 232.125 C145.6984302 234.06912458 155.77128685 236.01601337 165.84093511 237.97964752 C170.20378232 238.82989814 174.56816129 239.67163375 178.9338963 240.50692391 C180.98840928 240.90134537 183.04211497 241.29968296 185.09552002 241.6998291 C187.60269258 242.18837206 190.11110364 242.67061465 192.62088013 243.14559937 C193.71702637 243.36133606 194.81317261 243.57707275 195.9425354 243.79934692 C196.90073999 243.984041 197.85894459 244.16873508 198.84618568 244.35902596 C199.55694441 244.57054739 200.26770313 244.78206882 201 245 C202 247 202 247 200.8125 250.75 C197.84045458 258.1005052 193.92262764 263.1230241 187 267 C184.56574339 267.8777119 182.17095076 268.67543807 179.69580078 269.41210938 C178.99270342 269.62624733 178.28960606 269.84038528 177.56520271 270.06101227 C170.12378196 272.30575483 162.62681717 274.34147797 155.1171875 276.34375 C153.60373377 276.75008657 152.09036458 277.15673808 150.57707214 277.56367493 C145.6775286 278.88008239 140.77633105 280.19026652 135.875 281.5 C129.78765574 283.12761239 123.70053963 284.75607583 117.61376381 286.38581276 C115.81589683 286.86715731 114.01798264 287.34832555 112.2200222 287.82932091 C99.3823195 291.26490168 86.56255048 294.76117074 73.75362396 298.30244827 C68.42828939 299.77261809 63.1001715 301.23267332 57.77201843 302.69259071 C53.51771542 303.85933405 49.26561089 305.03310257 45.01776123 306.22314453 C41.0231262 307.34222455 37.02391786 308.4432097 33.02077675 309.53145409 C31.56423233 309.93088419 30.10944639 310.33680098 28.65678978 310.75014687 C17.69076144 313.86543632 5.3786431 316.76570527 -5.5 311.9375 C-20.09139492 303.26022528 -22.19121433 288.25296289 -26.234375 272.93359375 C-26.74523301 271.01689692 -27.25667709 269.10035621 -27.7686615 267.18395996 C-28.86330548 263.08221173 -29.95419462 258.97949096 -31.04208374 254.87594604 C-32.76901273 248.36233755 -34.50435841 241.85099118 -36.24145508 235.34008789 C-36.8344987 233.11699201 -37.42753148 230.89389324 -38.02055359 228.67079163 C-38.31615362 227.56268694 -38.61175365 226.45458225 -38.91631126 225.31289864 C-39.82156586 221.91815121 -40.72599449 218.5231847 -41.63020325 215.12815857 C-46.85170287 195.5267828 -52.12364254 175.93922661 -57.41394997 156.3563242 C-59.1708311 149.85275372 -60.92465944 143.34836636 -62.67675781 136.84350586 C-66.65910201 122.06141466 -70.6425934 107.27987179 -74.68403625 92.5138092 C-76.13409718 87.21523886 -77.57466583 81.91409888 -79.01480103 76.61282349 C-79.66083777 74.24374192 -80.3109061 71.87575527 -80.96542358 69.50900269 C-81.8412137 66.34199036 -82.70340589 63.1715746 -83.5625 60 C-83.8142952 59.10450943 -84.06609039 58.20901886 -84.32551575 57.28639221 C-87.1222885 46.82971189 -86.48351034 38.34496525 -81.25 28.8125 C-69.65128686 14.31410858 -47.13987593 12.22490867 -30.06884766 7.70324707 C-27.44822869 7.00793715 -24.82881704 6.3081402 -22.20942879 5.60821056 C-19.08017963 4.772249 -15.95026632 3.93878749 -12.8203125 3.10546875 C-11.64759796 2.79304733 -10.47488342 2.48062592 -9.26663208 2.15873718 C-7.65762527 1.73247795 -7.65762527 1.73247795 -6.01611328 1.29760742 C-5.06874298 1.04621506 -4.12137268 0.79482269 -3.14529419 0.53581238 C-1 0 -1 0 0 0 Z " fill="#E96FFF" transform="translate(137,170)"/>
<path d="M0 0 C1.5788893 0.15052524 3.15757565 0.30318012 4.73617554 0.45671082 C5.61532812 0.54148776 6.49448071 0.62626471 7.40027428 0.71361065 C11.09063116 1.12014542 14.71046985 1.7725771 18.3515625 2.48828125 C19.09530121 2.63275192 19.83903992 2.7772226 20.60531616 2.92607117 C22.16023059 3.23030687 23.71464415 3.53711327 25.26855469 3.84643555 C27.62481746 4.3124639 29.98401806 4.76089989 32.34375 5.20898438 C52.89326849 9.21576657 52.89326849 9.21576657 59.34375 17.78515625 C65.48631181 27.05256781 65.96087586 36.04952468 63.9039669 46.70465088 C63.65892638 47.90465729 63.65892638 47.90465729 63.40893555 49.12890625 C63.23716608 50.00536804 63.06539661 50.88182983 62.88842201 51.78485107 C62.31256931 54.71238807 61.72459119 57.63735493 61.13671875 60.5625 C60.71645485 62.68694207 60.29697772 64.8115399 59.8782196 66.9362793 C58.73164327 72.74267222 57.57460516 78.54693527 56.41545868 84.35083008 C55.19116744 90.48805585 53.97494505 96.62687952 52.75830078 102.765625 C49.84900963 117.44246642 49.84900963 117.44246642 48.47492576 124.35507679 C44.6259856 143.71935018 40.82794679 163.09314869 37.05939656 182.47322083 C35.98299055 188.00808998 34.90438587 193.54252679 33.82420349 199.07666016 C33.59680816 200.24170704 33.59680816 200.24170704 33.36481899 201.43029022 C32.60374844 205.32916406 31.84240119 209.22798377 31.08088207 213.12677002 C29.57746692 220.82575205 28.07819961 228.52550247 26.58798218 236.22705078 C25.31089104 242.82705208 24.0257707 249.42542805 22.73054951 256.02189636 C22.06540162 259.41093768 21.4041884 262.80062624 20.75333214 266.19244385 C20.04084905 269.89482536 19.31395206 273.59409769 18.58349609 277.29296875 C18.37992335 278.36954239 18.17635061 279.44611603 17.966609 280.55531311 C16.23442544 289.19410668 13.81370133 296.01723786 7 302 C6.2575 302.70125 5.515 303.4025 4.75 304.125 C-3.30911068 309.61984819 -11.99549227 309.81777777 -21.37069702 308.15615845 C-23.38605126 307.76467829 -25.39961904 307.3639255 -27.41162109 306.95556641 C-28.52095001 306.73754364 -29.63027893 306.51952087 -30.77322388 306.29489136 C-34.44160802 305.57184294 -38.10746297 304.83672208 -41.7734375 304.1015625 C-44.37352068 303.58667366 -46.97373083 303.07247353 -49.5741272 302.55917358 C-55.75118849 301.33834058 -61.92650245 300.10889702 -68.1012131 298.87623632 C-76.26735047 297.24645 -84.43591032 295.62891391 -92.60444117 294.01117468 C-99.9474824 292.55681675 -107.2899216 291.09958901 -114.6305542 289.63311768 C-127.40996098 287.0819414 -140.1950236 284.57024109 -153.00097656 282.15527344 C-156.50747103 281.48854243 -160.01377804 280.82083384 -163.5200386 280.15287399 C-165.70996848 279.73912286 -167.9009093 279.33068077 -170.09290695 278.92802811 C-173.09924433 278.37578212 -176.10170102 277.80564661 -179.10400391 277.23193359 C-179.96575855 277.07912304 -180.8275132 276.92631248 -181.71538162 276.76887131 C-190.84951218 274.98575839 -198.69533085 271.49021144 -204.59375 264.1171875 C-207.77635385 259.32560059 -209.16967347 254.77887887 -209 249 C-208.15038822 248.99761165 -207.30077644 248.99522329 -206.42541885 248.99276257 C-185.71668458 248.93352997 -165.00806589 248.85792717 -144.29945755 248.76428509 C-134.2847728 248.71939121 -124.27012309 248.67996184 -114.25537109 248.65356445 C-105.52270252 248.6305324 -96.79014548 248.59707645 -88.05756545 248.55129844 C-83.43718695 248.52743629 -78.81691843 248.5086617 -74.1964798 248.50238609 C-69.83963576 248.49630339 -65.48307285 248.4761896 -61.12633324 248.44572449 C-59.53496191 248.43699502 -57.94355377 248.43321101 -56.3521595 248.43499184 C-40.4046437 248.44719337 -26.187667 246.1080176 -14.1875 234.75 C-1.30344702 220.9670596 -0.55170166 206.51486648 -0.56762695 188.56567383 C-0.5585995 186.50495825 -0.54826988 184.44424803 -0.53674316 182.38354492 C-0.5092627 176.81617769 -0.49990081 171.24891261 -0.49388909 165.68148637 C-0.48448209 159.85318375 -0.45827683 154.02495674 -0.43388367 148.19670105 C-0.39027894 137.17209182 -0.36169495 126.14749731 -0.33856028 115.12282819 C-0.3114763 102.56654098 -0.26756675 90.01033005 -0.22227156 77.45409739 C-0.12951159 51.63610633 -0.05779127 25.81809135 0 0 Z " fill="#BB48FF" transform="translate(396,100)"/>
<path d="M0 0 C8.1992546 6.91920219 13.53856013 14.58159992 15.625 25.25 C16.46815277 38.12429418 14.64035602 48.87917995 6.625 59.25 C-1.32755763 67.47189559 -10.38475499 71.23539684 -21.72070312 71.71826172 C-33.26001295 71.8834721 -42.71956167 69.18256655 -51.375 61.25 C-59.4080645 53.3287647 -63.20722396 44.19139903 -63.4453125 32.921875 C-63.03386585 21.93382928 -60.13709385 12.05589556 -52.37890625 3.99609375 C-37.99519817 -8.53707879 -16.05576668 -11.34442201 0 0 Z " fill="#D15BFF" transform="translate(290.375,78.75)"/>
</svg>
