<?xml version="1.0" encoding="UTF-8"?>
<svg version="1.1" xmlns="http://www.w3.org/2000/svg" width="512" height="512">
<path d="M0 0 C12.00836154 8.44237225 22.13425414 19.87539826 24.74267578 34.71606445 C24.88817871 35.64636475 25.03368164 36.57666504 25.18359375 37.53515625 C26.01961913 37.53363737 26.85564452 37.53211849 27.717004 37.53055358 C77.23546603 37.4410964 126.75391951 37.37243792 176.27244614 37.33089493 C182.21442712 37.32589194 188.15640794 37.32071466 194.09838867 37.31542969 C195.28136057 37.31438045 196.46433247 37.3133312 197.683152 37.31225017 C216.85305053 37.29483147 236.02290122 37.26328572 255.19277134 37.22654507 C274.85387825 37.1891764 294.51496006 37.16692903 314.17610103 37.15880227 C326.31406163 37.15330604 338.45188701 37.13592906 350.589806 37.10349038 C358.90632718 37.08239278 367.22277817 37.0759454 375.53932419 37.08115074 C380.34194338 37.08371993 385.14432583 37.07970339 389.94690323 37.05833435 C394.34081194 37.03892587 398.73432381 37.03784893 403.12825046 37.05156067 C404.72053065 37.05325632 406.31283522 37.04813378 407.90506717 37.03562352 C410.06515905 37.01963397 412.22380738 37.02818136 414.38387585 37.04296494 C416.18545895 37.04068661 416.18545895 37.04068661 418.02343768 37.03836226 C421.81655981 37.63466201 423.46779939 38.87435019 426.18359375 41.53515625 C427.53796134 44.24389144 427.31283629 46.35514545 427.31781483 49.38953876 C427.32227267 50.64445978 427.32673051 51.89938079 427.33132344 53.1923297 C427.33123414 54.59789043 427.33104427 56.00345114 427.33076477 57.40901184 C427.33406238 58.8921036 427.33778773 60.37519447 427.34190625 61.85828418 C427.35194595 65.94868034 427.3556462 70.03906182 427.35829556 74.12946856 C427.36219275 78.5351662 427.37177143 82.94085216 427.38050842 87.34654236 C427.40028871 97.99320787 427.41034071 108.63987435 427.41923621 119.28655365 C427.42361627 124.29628326 427.42898378 129.30601181 427.43422508 134.31574059 C427.4512384 150.9621156 427.46573378 167.60848995 427.47297382 184.25487232 C427.47488382 188.57657179 427.47680413 192.89827125 427.47875977 197.2199707 C427.47924351 198.29414947 427.47972725 199.36832823 427.48022565 200.47505786 C427.48853045 217.88594149 427.51387452 235.29675651 427.54634044 252.70761017 C427.57937735 270.56980503 427.5974195 288.43196499 427.60061806 306.29419059 C427.60278622 316.3285384 427.61157941 326.36278616 427.63707924 336.39710426 C427.65874022 344.94070305 427.6668594 353.48417747 427.65711246 362.0278006 C427.65255444 366.38892999 427.65454072 370.74980256 427.6738739 375.11089706 C427.69141169 379.10135477 427.69058493 383.0913665 427.67497661 387.08182832 C427.67258618 388.52734456 427.67699796 389.97289093 427.68880526 391.41836093 C427.70383907 393.37993607 427.69190821 395.34166285 427.67857838 397.30325031 C427.67955519 398.39386212 427.68053199 399.48447392 427.6815384 400.60813457 C427.06379653 404.23934909 425.7143049 405.90904185 423.18359375 408.53515625 C420.30615107 409.97387759 417.83793453 409.65452778 414.62255859 409.64868164 C413.94927017 409.64882767 413.27598175 409.64897369 412.58229065 409.64912415 C410.35300494 409.64842652 408.1238024 409.64064114 405.89453125 409.6328125 C404.35039312 409.63094779 402.80625441 409.62952414 401.26211548 409.62852478 C397.19488903 409.62470379 393.1276982 409.61487707 389.06048584 409.6038208 C384.91142255 409.59359769 380.7623535 409.58902523 376.61328125 409.58398438 C368.47003572 409.57325444 360.32681917 409.55618302 352.18359375 409.53515625 C352.2307251 411.31345825 352.2307251 411.31345825 352.27880859 413.12768555 C352.38757991 417.53496012 352.45635216 421.94211666 352.51318359 426.3503418 C352.54331872 428.25646936 352.58423572 430.16245867 352.63623047 432.06811523 C352.7091935 434.81138212 352.74308133 437.55281343 352.76953125 440.296875 C352.81598282 441.57059212 352.81598282 441.57059212 352.8633728 442.87004089 C352.86405258 444.07071953 352.86405258 444.07071953 352.86474609 445.2956543 C352.8847316 446.34489326 352.8847316 446.34489326 352.90512085 447.41532898 C351.99332239 450.09416841 350.63171333 451.70009529 348.42884231 453.45469588 C343.14026275 455.99967051 336.66132463 455.21128784 330.89549255 455.16334534 C329.30739813 455.16839108 327.7193094 455.17562012 326.13123375 455.18484348 C321.7686891 455.20379043 317.40670422 455.19151821 313.0441736 455.17412055 C308.33843474 455.16076178 303.6327786 455.17617865 298.92704773 455.1879425 C289.70712673 455.20633759 280.48741745 455.197793 271.26750302 455.17985428 C263.77107894 455.16583215 256.27471237 455.16193466 248.77827644 455.16529655 C247.17819179 455.16601272 247.17819179 455.16601272 245.5457822 455.16674335 C243.37870389 455.16776969 241.2116256 455.16882505 239.04454733 455.16990911 C219.87234794 455.17848071 200.7002507 455.1617895 181.52807617 455.13208008 C162.93591006 455.1032699 144.34389128 455.09614516 125.75170898 455.11157227 C105.50426423 455.12834987 85.25688947 455.13235051 65.00944287 455.11486191 C62.84816906 455.11301756 60.68689524 455.11118283 58.52562141 455.10935783 C57.46227404 455.10844574 56.39892666 455.10753365 55.30335663 455.10659393 C47.8223321 455.10099605 40.3413418 455.10428899 32.86031914 455.11090279 C23.73365247 455.11865104 14.60713063 455.11183061 5.48049306 455.08672775 C0.82673129 455.07426402 -3.82680541 455.0680479 -8.48057556 455.07926941 C-12.747642 455.08936371 -17.01426113 455.08074247 -21.28127348 455.05768823 C-22.81831986 455.05255966 -24.35540683 455.05403478 -25.89243514 455.06308288 C-43.67803899 455.15900504 -57.4580838 450.2147052 -70.4921875 438.01953125 C-79.45610264 428.43793457 -84.92968818 416.27153062 -84.95062733 403.1465683 C-84.95508517 401.84880699 -84.95954301 400.55104568 -84.96413594 399.21395826 C-84.96404665 397.7755734 -84.96385682 396.33718855 -84.96357727 394.89880371 C-84.96687764 393.36932676 -84.97060357 391.83985067 -84.97471875 390.31037569 C-84.98472733 386.10538363 -84.98845371 381.90040585 -84.99110806 377.69540358 C-84.99501452 373.1607703 -85.00459265 368.62614829 -85.01332092 364.09152222 C-85.03307608 353.13905643 -85.04315052 342.18658974 -85.05204871 331.23411059 C-85.05643333 326.07449455 -85.0617997 320.91487952 -85.06703758 315.75526428 C-85.08404922 298.60008711 -85.09854283 281.44491057 -85.10578632 264.28972626 C-85.10769617 259.83865864 -85.10961651 255.38759103 -85.11157227 250.93652344 C-85.11205601 249.83025229 -85.11253975 248.72398113 -85.11303815 247.58418661 C-85.12133636 229.66804351 -85.14667006 211.75196722 -85.17915294 193.83585328 C-85.21224112 175.43563895 -85.23023669 157.03545856 -85.23343056 138.63521433 C-85.23559407 128.30666873 -85.24431939 117.97822055 -85.26989174 107.64970398 C-85.29162278 98.85241883 -85.29963733 90.05525478 -85.28992496 81.25794584 C-85.28538718 76.77226566 -85.28723597 72.28683519 -85.3066864 67.80118942 C-85.32436847 63.6876933 -85.32327981 59.57462812 -85.30778911 55.4611271 C-85.30542065 53.97989232 -85.30969671 52.4986273 -85.32161776 51.01743859 C-85.4546942 33.37771831 -80.36404966 19.73507057 -68.296875 6.859375 C-50.07744897 -10.21237065 -21.29835197 -12.77901118 0 0 Z " fill="#FEFEFE" transform="translate(84.81640625,32.46484375)"/>
<path d="M0 0 C12.00836154 8.44237225 22.13425414 19.87539826 24.74267578 34.71606445 C24.88817871 35.64636475 25.03368164 36.57666504 25.18359375 37.53515625 C26.01961913 37.53363737 26.85564452 37.53211849 27.717004 37.53055358 C77.23546603 37.4410964 126.75391951 37.37243792 176.27244614 37.33089493 C182.21442712 37.32589194 188.15640794 37.32071466 194.09838867 37.31542969 C195.28136057 37.31438045 196.46433247 37.3133312 197.683152 37.31225017 C216.85305053 37.29483147 236.02290122 37.26328572 255.19277134 37.22654507 C274.85387825 37.1891764 294.51496006 37.16692903 314.17610103 37.15880227 C326.31406163 37.15330604 338.45188701 37.13592906 350.589806 37.10349038 C358.90632718 37.08239278 367.22277817 37.0759454 375.53932419 37.08115074 C380.34194338 37.08371993 385.14432583 37.07970339 389.94690323 37.05833435 C394.34081194 37.03892587 398.73432381 37.03784893 403.12825046 37.05156067 C404.72053065 37.05325632 406.31283522 37.04813378 407.90506717 37.03562352 C410.06515905 37.01963397 412.22380738 37.02818136 414.38387585 37.04296494 C416.18545895 37.04068661 416.18545895 37.04068661 418.02343768 37.03836226 C421.81655981 37.63466201 423.46779939 38.87435019 426.18359375 41.53515625 C427.53796134 44.24389144 427.31283629 46.35514545 427.31781483 49.38953876 C427.32227267 50.64445978 427.32673051 51.89938079 427.33132344 53.1923297 C427.33123414 54.59789043 427.33104427 56.00345114 427.33076477 57.40901184 C427.33406238 58.8921036 427.33778773 60.37519447 427.34190625 61.85828418 C427.35194595 65.94868034 427.3556462 70.03906182 427.35829556 74.12946856 C427.36219275 78.5351662 427.37177143 82.94085216 427.38050842 87.34654236 C427.40028871 97.99320787 427.41034071 108.63987435 427.41923621 119.28655365 C427.42361627 124.29628326 427.42898378 129.30601181 427.43422508 134.31574059 C427.4512384 150.9621156 427.46573378 167.60848995 427.47297382 184.25487232 C427.47488382 188.57657179 427.47680413 192.89827125 427.47875977 197.2199707 C427.47924351 198.29414947 427.47972725 199.36832823 427.48022565 200.47505786 C427.48853045 217.88594149 427.51387452 235.29675651 427.54634044 252.70761017 C427.57937735 270.56980503 427.5974195 288.43196499 427.60061806 306.29419059 C427.60278622 316.3285384 427.61157941 326.36278616 427.63707924 336.39710426 C427.65874022 344.94070305 427.6668594 353.48417747 427.65711246 362.0278006 C427.65255444 366.38892999 427.65454072 370.74980256 427.6738739 375.11089706 C427.69141169 379.10135477 427.69058493 383.0913665 427.67497661 387.08182832 C427.67258618 388.52734456 427.67699796 389.97289093 427.68880526 391.41836093 C427.70383907 393.37993607 427.69190821 395.34166285 427.67857838 397.30325031 C427.67955519 398.39386212 427.68053199 399.48447392 427.6815384 400.60813457 C427.06379653 404.23934909 425.7143049 405.90904185 423.18359375 408.53515625 C420.30615107 409.97387759 417.83793453 409.65452778 414.62255859 409.64868164 C413.94927017 409.64882767 413.27598175 409.64897369 412.58229065 409.64912415 C410.35300494 409.64842652 408.1238024 409.64064114 405.89453125 409.6328125 C404.35039312 409.63094779 402.80625441 409.62952414 401.26211548 409.62852478 C397.19488903 409.62470379 393.1276982 409.61487707 389.06048584 409.6038208 C384.91142255 409.59359769 380.7623535 409.58902523 376.61328125 409.58398438 C368.47003572 409.57325444 360.32681917 409.55618302 352.18359375 409.53515625 C352.2307251 411.31345825 352.2307251 411.31345825 352.27880859 413.12768555 C352.38757991 417.53496012 352.45635216 421.94211666 352.51318359 426.3503418 C352.54331872 428.25646936 352.58423572 430.16245867 352.63623047 432.06811523 C352.7091935 434.81138212 352.74308133 437.55281343 352.76953125 440.296875 C352.81598282 441.57059212 352.81598282 441.57059212 352.8633728 442.87004089 C352.86405258 444.07071953 352.86405258 444.07071953 352.86474609 445.2956543 C352.8847316 446.34489326 352.8847316 446.34489326 352.90512085 447.41532898 C351.99332239 450.09416841 350.63171333 451.70009529 348.42884231 453.45469588 C343.14026275 455.99967051 336.66132463 455.21128784 330.89549255 455.16334534 C329.30739813 455.16839108 327.7193094 455.17562012 326.13123375 455.18484348 C321.7686891 455.20379043 317.40670422 455.19151821 313.0441736 455.17412055 C308.33843474 455.16076178 303.6327786 455.17617865 298.92704773 455.1879425 C289.70712673 455.20633759 280.48741745 455.197793 271.26750302 455.17985428 C263.77107894 455.16583215 256.27471237 455.16193466 248.77827644 455.16529655 C247.17819179 455.16601272 247.17819179 455.16601272 245.5457822 455.16674335 C243.37870389 455.16776969 241.2116256 455.16882505 239.04454733 455.16990911 C219.87234794 455.17848071 200.7002507 455.1617895 181.52807617 455.13208008 C162.93591006 455.1032699 144.34389128 455.09614516 125.75170898 455.11157227 C105.50426423 455.12834987 85.25688947 455.13235051 65.00944287 455.11486191 C62.84816906 455.11301756 60.68689524 455.11118283 58.52562141 455.10935783 C57.46227404 455.10844574 56.39892666 455.10753365 55.30335663 455.10659393 C47.8223321 455.10099605 40.3413418 455.10428899 32.86031914 455.11090279 C23.73365247 455.11865104 14.60713063 455.11183061 5.48049306 455.08672775 C0.82673129 455.07426402 -3.82680541 455.0680479 -8.48057556 455.07926941 C-12.747642 455.08936371 -17.01426113 455.08074247 -21.28127348 455.05768823 C-22.81831986 455.05255966 -24.35540683 455.05403478 -25.89243514 455.06308288 C-43.67803899 455.15900504 -57.4580838 450.2147052 -70.4921875 438.01953125 C-79.45610264 428.43793457 -84.92968818 416.27153062 -84.95062733 403.1465683 C-84.95508517 401.84880699 -84.95954301 400.55104568 -84.96413594 399.21395826 C-84.96404665 397.7755734 -84.96385682 396.33718855 -84.96357727 394.89880371 C-84.96687764 393.36932676 -84.97060357 391.83985067 -84.97471875 390.31037569 C-84.98472733 386.10538363 -84.98845371 381.90040585 -84.99110806 377.69540358 C-84.99501452 373.1607703 -85.00459265 368.62614829 -85.01332092 364.09152222 C-85.03307608 353.13905643 -85.04315052 342.18658974 -85.05204871 331.23411059 C-85.05643333 326.07449455 -85.0617997 320.91487952 -85.06703758 315.75526428 C-85.08404922 298.60008711 -85.09854283 281.44491057 -85.10578632 264.28972626 C-85.10769617 259.83865864 -85.10961651 255.38759103 -85.11157227 250.93652344 C-85.11205601 249.83025229 -85.11253975 248.72398113 -85.11303815 247.58418661 C-85.12133636 229.66804351 -85.14667006 211.75196722 -85.17915294 193.83585328 C-85.21224112 175.43563895 -85.23023669 157.03545856 -85.23343056 138.63521433 C-85.23559407 128.30666873 -85.24431939 117.97822055 -85.26989174 107.64970398 C-85.29162278 98.85241883 -85.29963733 90.05525478 -85.28992496 81.25794584 C-85.28538718 76.77226566 -85.28723597 72.28683519 -85.3066864 67.80118942 C-85.32436847 63.6876933 -85.32327981 59.57462812 -85.30778911 55.4611271 C-85.30542065 53.97989232 -85.30969671 52.4986273 -85.32161776 51.01743859 C-85.4546942 33.37771831 -80.36404966 19.73507057 -68.296875 6.859375 C-50.07744897 -10.21237065 -21.29835197 -12.77901118 0 0 Z M25.18359375 57.53515625 C25.18359375 167.09515625 25.18359375 276.65515625 25.18359375 389.53515625 C151.24359375 389.53515625 277.30359375 389.53515625 407.18359375 389.53515625 C407.18359375 279.97515625 407.18359375 170.41515625 407.18359375 57.53515625 C281.12359375 57.53515625 155.06359375 57.53515625 25.18359375 57.53515625 Z " fill="#052A75" transform="translate(84.81640625,32.46484375)"/>
<path d="M0 0 C126.06 0 252.12 0 382 0 C382 0.33 382 0.66 382 1 C303.46 1 224.92 1 144 1 C143.34 2.65 142.68 4.3 142 6 C141.17245746 7.5234947 140.31289647 9.02993756 139.42578125 10.51953125 C138.92594727 11.3700708 138.42611328 12.22061035 137.91113281 13.09692383 C137.38358398 13.99306396 136.85603516 14.8892041 136.3125 15.8125 C131.17014444 24.65410863 126.87053063 33.53920443 123 43 C124.41478638 42.97643433 124.41478638 42.97643433 125.8581543 42.95239258 C129.37123148 42.90113993 132.88390898 42.86359009 136.3972168 42.83520508 C137.91518438 42.82015647 139.43310876 42.79971262 140.95092773 42.77368164 C143.13796677 42.73712347 145.32442896 42.72023477 147.51171875 42.70703125 C148.82615967 42.6913208 150.14060059 42.67561035 151.49487305 42.65942383 C156.20237816 43.11682925 158.70702432 44.70702432 162 48 C162.68994819 52.60500307 162.92080622 56.69817052 160.1875 60.5625 C157.08627289 62.60044924 154.61467478 63.12496743 150.98754883 63.11352539 C150.18694534 63.11344986 149.38634186 63.11337433 148.56147766 63.11329651 C147.70201035 63.10813522 146.84254303 63.10297394 145.95703125 63.09765625 C145.0734343 63.0962413 144.18983734 63.09482635 143.27946472 63.09336853 C140.45710872 63.08777069 137.63483203 63.07521861 134.8125 63.0625 C132.89908969 63.05748472 130.98567813 63.05292186 129.07226562 63.04882812 C124.38147986 63.03780197 119.69075337 63.02053883 115 63 C114.78150391 64.36185425 114.78150391 64.36185425 114.55859375 65.7512207 C114.137322 68.20133575 113.6682395 70.57346773 113.0625 72.98046875 C112.88976562 73.66947266 112.71703125 74.35847656 112.5390625 75.06835938 C112.27222656 76.11733398 112.27222656 76.11733398 112 77.1875 C111.82210937 77.89841797 111.64421875 78.60933594 111.4609375 79.34179688 C110.72394123 82.26503206 109.95370209 85.13889372 109 88 C109.84445175 87.98667633 109.84445175 87.98667633 110.70596313 87.9730835 C116.57844871 87.8844193 122.45074336 87.8241869 128.32373047 87.78027344 C130.51391324 87.76018893 132.70404259 87.73291583 134.89404297 87.69824219 C138.04668376 87.64958591 141.19861404 87.62699922 144.3515625 87.609375 C145.32678864 87.58872986 146.30201477 87.56808472 147.30679321 87.54681396 C153.20889585 87.5448768 156.48347686 88.10842175 161 92 C163.09390974 94.64014707 163 96.01175464 163 99.4375 C161.98197268 103.06422231 160.97632644 104.67207539 158.02532959 106.97885132 C153.7431128 109.13789745 148.94284551 108.59975508 144.2578125 108.48828125 C143.13430389 108.48120651 142.01079529 108.47413177 140.85324097 108.46684265 C137.27647396 108.43892807 133.70129124 108.37619067 130.125 108.3125 C127.69533516 108.28741353 125.2656457 108.26460098 122.8359375 108.24414062 C116.88952855 108.19336869 110.94653048 108.09550102 105 108 C104.67 116.91 104.34 125.82 104 135 C105.98 135.99 105.98 135.99 108 137 C110.35620437 140.53430656 110.48991613 141.83571287 110 146 C109.34257812 146.92425781 108.68515625 147.84851563 108.0078125 148.80078125 C101.3429728 159.42043829 107.45294463 179.48052226 110 191 C112.73050697 201.87211884 116.02454251 212.52310729 120 223 C121.05912598 223.00410889 122.11825195 223.00821777 123.20947266 223.01245117 C127.15722627 223.03430283 131.1039917 223.08865364 135.05126953 223.15258789 C136.75625096 223.1757156 138.46137419 223.19015133 140.16650391 223.19555664 C142.62491687 223.20488512 145.08111578 223.24595525 147.5390625 223.29296875 C148.29555084 223.2890361 149.05203918 223.28510345 149.83145142 223.28105164 C155.50008936 223.43564077 158.0768634 224.87750324 162 229 C163.125 232.4375 163.125 232.4375 163 236 C160.94612885 240.031673 159.23309425 242.40126257 155 244 C152.15917969 244.22705078 152.15917969 244.22705078 148.921875 244.1953125 C147.18164062 244.18564453 147.18164062 244.18564453 145.40625 244.17578125 C143.59640625 244.15064453 143.59640625 244.15064453 141.75 244.125 C139.91695313 244.11146484 139.91695313 244.11146484 138.046875 244.09765625 C135.03105218 244.07409513 132.01562508 244.04119706 129 244 C135.49133422 257.00923339 142.34952243 269.3048343 151 281 C151.63204346 281.8652832 151.63204346 281.8652832 152.27685547 282.74804688 C160.61597961 294.11869173 170.17199546 304.23507928 180.0625 314.25 C180.69881348 314.8994458 181.33512695 315.5488916 181.99072266 316.21801758 C183.24608816 317.47545886 184.52107213 318.71368973 185.81698036 319.92930603 C187.23612002 321.2754249 188.61822703 322.66208438 189.9531765 324.09173584 C197.7745289 331.59371574 205.86823043 331.12133723 216.02587891 331 C217.84015631 331.00761593 219.65442184 331.01874303 221.46865845 331.03309631 C226.36918345 331.06199999 231.26841385 331.04206781 236.16889238 331.0130806 C241.29922268 330.99113324 246.42934654 331.0144933 251.55966187 331.03295898 C261.26347371 331.06104742 270.96679037 331.04864281 280.6705879 331.02153492 C291.72267453 330.99264368 302.77454956 331.00912982 313.82663846 331.02934647 C336.55121454 331.06990221 359.27546502 331.0537366 382 331 C382 331.33 382 331.66 382 332 C255.94 332 129.88 332 0 332 C0 222.44 0 112.88 0 0 Z " fill="#D0DAFB" transform="translate(110,90)"/>
<path d="M0 0 C0.91517395 -0.00807175 1.8303479 -0.01614349 2.77325439 -0.02445984 C4.7134003 -0.03830504 6.65357061 -0.04902524 8.59375 -0.05688477 C11.55255748 -0.07407025 14.51023967 -0.11794882 17.46875 -0.16210938 C19.35415845 -0.17223876 21.23957641 -0.1807541 23.125 -0.1875 C24.00645691 -0.20500809 24.88791382 -0.22251617 25.79608154 -0.24055481 C31.33081532 -0.2211388 34.46954586 0.51941375 38.828125 4.23828125 C40.47049014 5.90970158 42.05840816 7.63601425 43.59375 9.40625 C54.03626574 22.10879084 54.03626574 22.10879084 68.55566406 27.98754883 C70.78649929 27.92853573 72.95937958 27.75366879 75.17578125 27.5 C79.27932916 27.20594897 80.68078204 27.67998229 83.828125 30.23828125 C86.28219098 33.91938022 86.10203434 36.67074372 86.06863403 40.92607117 C86.07034288 41.71676005 86.07205173 42.50744893 86.07381237 43.32209808 C86.07711502 45.98004141 86.06609087 48.63773409 86.05517578 51.2956543 C86.05461183 53.19755039 86.0549279 55.09944693 86.05606079 57.00134277 C86.05663595 62.17252574 86.04485525 67.34361643 86.03091288 72.5147779 C86.01843269 77.91600057 86.01723716 83.31722522 86.01486206 88.71846008 C86.0086393 98.95005359 85.99221773 109.18160449 85.97216308 119.41317922 C85.94982881 131.05993781 85.93881688 142.7066984 85.92877221 154.35347307 C85.90785219 178.31509944 85.87266078 202.27668796 85.828125 226.23828125 C86.95613525 226.20565186 86.95613525 226.20565186 88.10693359 226.17236328 C89.09516113 226.15544434 90.08338867 226.13852539 91.1015625 226.12109375 C92.56988525 226.08846436 92.56988525 226.08846436 94.06787109 226.05517578 C98.11676486 226.32376505 99.83976689 227.56448715 102.828125 230.23828125 C104.36027388 233.30257901 104.05751048 235.85484545 103.828125 239.23828125 C102.12840331 243.06265504 100.68054978 244.70787822 96.828125 246.23828125 C94.39772892 246.49555016 94.39772892 246.49555016 91.63526917 246.50570679 C90.06020599 246.51850174 90.06020599 246.51850174 88.45332336 246.53155518 C86.73341438 246.53019562 86.73341438 246.53019562 84.97875977 246.52880859 C83.16113632 246.53888443 83.16113632 246.53888443 81.30679321 246.54916382 C77.98647564 246.56490682 74.66640819 246.57151878 71.34607053 246.57279539 C69.27088873 246.57421782 67.19573308 246.57848911 65.12055779 246.58378983 C57.87877617 246.60228625 50.63706813 246.61046078 43.39526367 246.60888672 C36.64799994 246.60768487 29.90105586 246.6287964 23.15387303 246.66037405 C17.35756857 246.68653347 11.56136856 246.69725419 5.76500553 246.6959759 C2.30455751 246.69546623 -1.15560627 246.70115173 -4.61599541 246.722332 C-8.47516226 246.74530903 -12.3338911 246.73619548 -16.19311523 246.72412109 C-17.33769699 246.73536011 -18.48227875 246.74659912 -19.6615448 246.75817871 C-27.40567812 246.69647513 -27.40567812 246.69647513 -31.35804749 244.33291626 C-34.41201032 240.80615453 -34.65424626 238.06579529 -34.55859375 233.50390625 C-34.04842936 230.51506438 -32.76847079 228.77589817 -30.29589844 227.02319336 C-27.4351407 225.96602829 -24.97753283 226.05333857 -21.9375 226.1171875 C-20.85758789 226.13467041 -19.77767578 226.15215332 -18.66503906 226.17016602 C-17.84229492 226.19264404 -17.01955078 226.21512207 -16.171875 226.23828125 C-16.17648396 225.11514463 -16.18109293 223.99200802 -16.18584156 222.83483696 C-16.29679055 195.51893796 -16.37898054 168.20306815 -16.43093586 140.8869915 C-16.45672825 127.67718376 -16.49189887 114.46752477 -16.54907227 101.2578125 C-16.59887516 89.74555047 -16.63115847 78.23339616 -16.64231747 66.7210294 C-16.64884142 60.62407354 -16.66419664 54.52742588 -16.70052528 48.4305687 C-16.73443519 42.69321202 -16.74493789 36.95629083 -16.73741341 31.21884346 C-16.73879017 29.11211468 -16.74875215 27.00537151 -16.76790237 24.89872932 C-16.79276185 22.02324838 -16.78680584 19.1494139 -16.77314758 16.27389526 C-16.78771179 15.43925464 -16.802276 14.60461401 -16.81728154 13.74468124 C-16.76402329 9.59962691 -16.40770725 7.01744616 -13.75929546 3.73605537 C-9.42919645 -0.44401873 -5.76011565 0.0478325 0 0 Z " fill="#072C76" transform="translate(351.171875,132.76171875)"/>
<path d="M0 0 C9.10311739 5.48399607 15.08512429 12.74828953 18 23 C18.5346481 27.40851624 18.52408021 31.76254111 18.48101807 36.1991272 C18.48443577 37.49807399 18.48785347 38.79702079 18.49137473 40.1353296 C18.50026404 43.71581528 18.48439542 47.29581689 18.46426249 50.87624097 C18.44691388 54.74658441 18.4528394 58.61690275 18.45587158 62.48727417 C18.45796428 69.1846521 18.44546367 75.8818736 18.42292023 82.57921219 C18.39034799 92.26229343 18.37998788 101.94529938 18.37496826 111.62842946 C18.36622379 127.34038252 18.33963126 143.05225229 18.30175781 158.76416016 C18.26501575 174.02261947 18.23671474 189.28105613 18.21972656 204.53955078 C18.21815022 205.95144583 18.21815022 205.95144583 18.21654204 207.39186402 C18.21132171 212.11412405 18.20626692 216.83638424 18.20129442 221.55864453 C18.1598588 260.70582132 18.0894335 299.85290515 18 339 C14.75657667 337.73302732 11.84646966 336.37588738 8.875 334.5625 C-3.13979886 327.9484902 -18.77797814 326.4611699 -32.1171875 329.9140625 C-37.55665116 331.75895718 -42.30034381 334.14216842 -47.20629883 337.10498047 C-48.10463943 337.64669891 -49.00298004 338.18841736 -49.92854309 338.74655151 C-50.95391426 339.36700851 -50.95391426 339.36700851 -52 340 C-52.11450747 299.94776541 -52.2025804 259.89555219 -52.25532665 219.84318654 C-52.26157999 215.11192878 -52.26805162 210.38067134 -52.2746582 205.64941406 C-52.27596976 204.70752752 -52.27728131 203.76564098 -52.2786326 202.79521242 C-52.30037417 187.55519962 -52.33978881 172.31528138 -52.38576398 157.07532462 C-52.43256339 141.43138091 -52.46030276 125.78748662 -52.47044247 110.14347577 C-52.47729441 100.49448009 -52.49891573 90.84575168 -52.53958233 81.19683829 C-52.56606373 74.57531683 -52.5739888 67.95393304 -52.56750689 61.3323625 C-52.56431235 57.51509042 -52.56912139 53.69828454 -52.59602737 49.88109589 C-52.6250463 45.73364108 -52.61489554 41.58717009 -52.60127258 37.43963623 C-52.61583679 36.24505067 -52.630401 35.0504651 -52.64540654 33.81967998 C-52.55089901 23.14314667 -49.50513951 13.59108508 -42.0234375 5.75 C-29.73702898 -4.87608304 -14.6653921 -7.40144008 0 0 Z " fill="#92B1F3" transform="translate(72,49)"/>
<path d="M0 0 C0.61359375 0.38285156 1.2271875 0.76570313 1.859375 1.16015625 C7.77592582 5.41458326 11.70793842 13.21800958 14 20 C14.20741931 21.82739041 14.35235109 23.66284782 14.4375 25.5 C14.76768347 29.7297641 15.12144367 32.69499088 18 36 C21.21088084 38.01162962 23.71925752 38.25287109 27.47413254 38.26171303 C28.59329992 38.26917852 29.7124673 38.27664401 30.86554885 38.28433573 C32.09510999 38.282401 33.32467113 38.28046626 34.5914917 38.2784729 C36.55059805 38.2871615 36.55059805 38.2871615 38.54928231 38.29602563 C42.17736263 38.31184901 45.80536555 38.31525759 49.43347621 38.31667423 C53.34484873 38.32036421 57.25617858 38.33551766 61.16752625 38.34928894 C67.94515284 38.37157826 74.72276429 38.38658148 81.50041962 38.39665604 C91.29980318 38.4112327 101.099134 38.43676667 110.89848664 38.46498732 C126.79673105 38.51047374 142.69498304 38.5470809 158.59326172 38.578125 C174.03826225 38.60830297 189.48324422 38.64264977 204.92822266 38.68261719 C206.3559237 38.68630951 206.3559237 38.68630951 207.81246719 38.69007643 C212.58730356 38.70245088 217.36213971 38.71490744 222.13697577 38.72740483 C261.75795881 38.83100033 301.3789635 38.91964801 341 39 C341 47.25 341 55.5 341 64 C294.16181842 64.09125473 247.32364858 64.16204096 200.48539556 64.20426132 C194.95543283 64.20926413 189.42547028 64.21444142 183.89550781 64.21972656 C182.24413719 64.22130043 182.24413719 64.22130043 180.55940555 64.22290608 C162.73468709 64.24031025 144.91002025 64.27184803 127.08533241 64.30861118 C108.79490663 64.34602023 90.50450787 64.36823579 72.21404541 64.37635398 C60.92828233 64.38184181 49.64266515 64.39917336 38.35694699 64.43166587 C30.61740206 64.45281328 22.87793253 64.45919951 15.13836081 64.45400551 C10.67333438 64.4514441 6.20856286 64.45536451 1.74358177 64.4768219 C-2.34774494 64.49633971 -6.43864621 64.49723629 -10.52999283 64.48359558 C-12.00661641 64.4819106 -13.48326693 64.48694057 -14.95983778 64.49953273 C-27.86335823 64.60313568 -37.58667982 62.14282248 -47 53 C-54.00227456 44.63702144 -56.91673139 35.83409827 -56 25 C-54.91837796 13.8404075 -49.60552805 6.77781982 -41.171875 -0.33984375 C-28.97053921 -9.66640438 -12.24048926 -8.02560381 0 0 Z " fill="#6763F6" transform="translate(76,403)"/>
<path d="M0 0 C23 0 23 0 30.64453125 5.43359375 C32.78722261 7.73754874 34.80725473 10.02593983 36.8125 12.4375 C37.88933611 13.63873009 38.97201805 14.83474595 40.06054688 16.02539062 C42.02642289 18.18411115 43.9501951 20.36864324 45.84301758 22.59155273 C50.79672679 28.12277417 52.52175805 26.2101465 62 27 C62 86.07 62 145.14 62 206 C41.54 206 21.08 206 0 206 C0 138.02 0 70.04 0 0 Z " fill="#BA99F2" transform="translate(355,153)"/>
<path d="M0 0 C0.92804947 -0.0071553 1.85609894 -0.01431061 2.81227112 -0.02168274 C3.83358627 -0.02437164 4.85490143 -0.02706055 5.90716553 -0.02983093 C6.98046616 -0.03640213 8.05376678 -0.04297333 9.15959167 -0.04974365 C12.72356225 -0.06950915 16.28749063 -0.08114661 19.85150146 -0.09111023 C21.06679283 -0.09518576 22.2820842 -0.09926128 23.53420258 -0.10346031 C29.96662731 -0.12433507 36.39903063 -0.13863063 42.83148193 -0.147995 C49.48077132 -0.15906141 56.12971803 -0.19346037 62.77890396 -0.23316669 C67.8867048 -0.25929415 72.9944255 -0.26768342 78.10228729 -0.27127647 C80.55350757 -0.27615254 83.00472404 -0.28779534 85.45587921 -0.30631447 C88.88652646 -0.3306223 92.31630255 -0.32975567 95.74700928 -0.32279968 C96.76022751 -0.33560974 97.77344574 -0.3484198 98.81736755 -0.36161804 C104.72992404 -0.31791054 108.06362749 0.24073165 112.58587646 4.14717102 C114.67978621 6.78731809 114.58587646 8.15892566 114.58587646 11.58467102 C113.56067413 15.23695433 112.52940984 16.79929417 109.56016731 19.11623764 C105.51376884 21.22918228 101.07616341 20.83813909 96.61102295 20.79414368 C95.51602478 20.80290527 94.42102661 20.81166687 93.29284668 20.82069397 C89.68048248 20.84266535 86.06934643 20.82814284 82.45697021 20.81123352 C79.94403346 20.81460202 77.43109829 20.81945492 74.91816711 20.82572937 C69.65501408 20.83309745 64.39217952 20.82287362 59.12908936 20.79902649 C53.0507791 20.77180302 46.97330713 20.78064263 40.89501709 20.80815852 C35.03764691 20.83360914 29.18059455 20.83088228 23.32319832 20.81624985 C20.83488917 20.81291346 18.34655863 20.817011 15.85827446 20.82864761 C12.38205027 20.84133801 8.90743937 20.82200221 5.43133545 20.79414368 C4.40210464 20.80426483 3.37287384 20.81438599 2.31245422 20.82481384 C-4.67399711 20.72101759 -4.67399711 20.72101759 -8.52946472 17.73173523 C-11.29877008 13.93399344 -11.96024584 11.88023096 -11.41412354 7.14717102 C-8.40256093 2.28147472 -5.69542433 0.03008879 0 0 Z " fill="#6965F7" transform="translate(158.41412353515625,177.8528289794922)"/>
<path d="M0 0 C1.41937866 -0.01496269 1.41937866 -0.01496269 2.86743164 -0.03022766 C4.42206367 -0.03122467 4.42206367 -0.03122467 6.00810242 -0.03224182 C7.10105621 -0.04056534 8.19401001 -0.04888885 9.32008362 -0.0574646 C12.94358351 -0.08161672 16.56690354 -0.0903434 20.19047546 -0.09693909 C22.70530248 -0.1059018 25.22012894 -0.11502357 27.73495483 -0.1242981 C33.01172119 -0.14080506 38.28844352 -0.14852438 43.56523132 -0.15138245 C49.65759337 -0.15501556 55.74945096 -0.18489354 61.84165889 -0.22678703 C67.70802643 -0.26570872 73.57419442 -0.27697594 79.44067955 -0.2781086 C81.93377097 -0.28231749 84.42686257 -0.29477837 86.91987038 -0.31562614 C90.40806117 -0.34247221 93.89486117 -0.33773381 97.38310242 -0.32521057 C98.41345108 -0.34004486 99.44379974 -0.35487915 100.50537109 -0.37016296 C105.02622019 -0.32392917 108.36189559 -0.26113013 112.0072937 2.59677124 C115.00538918 5.96608345 115.54742755 7.77875456 115.38969421 12.27415466 C113.32516495 16.32674914 111.60532753 18.60633878 107.38969421 20.27415466 C105.18073463 20.53421688 105.18073463 20.53421688 102.73506165 20.54830933 C101.80426285 20.55828445 100.87346405 20.56825958 99.91445923 20.57853699 C98.90033463 20.57920166 97.88621002 20.57986633 96.84135437 20.58055115 C95.76776169 20.58887466 94.69416901 20.59719818 93.58804321 20.60577393 C90.03491095 20.6298924 86.48196218 20.63864812 82.92875671 20.64524841 C80.46019942 20.65421285 77.9916427 20.66333466 75.52308655 20.67260742 C70.34644754 20.68910467 65.16987326 20.69679898 59.99320984 20.69969177 C53.35956069 20.70507829 46.72651969 20.74276734 40.09304237 20.78843594 C34.99380774 20.81817466 29.89472017 20.82541464 24.79540634 20.82641792 C22.34976285 20.83062599 19.90411916 20.84308361 17.45856094 20.86393547 C14.03752621 20.890784 10.61790933 20.8860428 7.19682312 20.8735199 C6.18674698 20.88835419 5.17667084 20.90318848 4.13598633 20.91847229 C-0.40217728 20.87115578 -3.60711563 20.77781759 -7.22886658 17.86560059 C-10.10243591 14.73862615 -10.56334062 13.27472487 -10.78608704 9.20384216 C-10.51869508 6.2684727 -9.46297968 4.5238301 -7.61030579 2.27415466 C-4.43235685 0.15552204 -3.64060841 0.02057834 0 0 Z " fill="#6965F7" transform="translate(157.6103057861328,313.72584533691406)"/>
<path d="M0 0 C1.39424194 -0.00856522 1.39424194 -0.00856522 2.81665039 -0.01730347 C4.35097969 -0.01898026 4.35097969 -0.01898026 5.91630554 -0.02069092 C6.99121246 -0.02565582 8.06611938 -0.03062073 9.17359924 -0.03573608 C12.74238212 -0.05038419 16.31112054 -0.05716425 19.87992859 -0.06268311 C22.35373944 -0.06843253 24.82755027 -0.07419028 27.30136108 -0.07995605 C32.49413766 -0.09047369 37.68689871 -0.09631132 42.87968445 -0.09979248 C49.53798815 -0.10449149 56.19605834 -0.12930341 62.85430622 -0.15776443 C67.9663554 -0.17637618 73.07835521 -0.18159565 78.19043541 -0.18312836 C80.64526169 -0.18615889 83.10008702 -0.19420081 85.55488014 -0.20731354 C88.98801401 -0.22434249 92.42064674 -0.22250119 95.85380554 -0.21600342 C96.87061905 -0.2252182 97.88743256 -0.23443298 98.93505859 -0.243927 C105.30622547 -0.20609786 108.94584425 0.5071388 113.57914734 5.14044189 C114.26909553 9.74544496 114.49995355 13.83861242 111.76664734 17.70294189 C108.48684615 19.85823982 105.87486022 20.26792796 102.04476929 20.29434204 C100.65063309 20.30724274 100.65063309 20.30724274 99.22833252 20.32040405 C97.7017527 20.32679398 97.7017527 20.32679398 96.14433289 20.33331299 C95.07088623 20.34149048 93.99743958 20.34966797 92.89146423 20.35809326 C89.33293721 20.38294178 85.77445003 20.39946078 82.21586609 20.41387939 C81.00149179 20.41920307 79.7871175 20.42452675 78.53594398 20.43001175 C72.11000321 20.45673923 65.68408186 20.47611664 59.25810242 20.49053955 C52.61661308 20.50719864 45.97563088 20.55198879 39.33430767 20.602911 C34.23079854 20.63653966 29.12740766 20.64811215 24.02379799 20.65376663 C21.57535321 20.66048968 19.1269165 20.67573885 16.67857933 20.69965744 C13.25268843 20.7312201 9.82814307 20.73135855 6.40214539 20.72393799 C5.3904982 20.74034332 4.37885101 20.75674866 3.33654785 20.77365112 C-1.20700088 20.73335249 -4.4118143 20.65021767 -8.03479004 17.72897339 C-10.58339442 14.96410768 -11.29730227 14.04647809 -11.79585266 10.39044189 C-11.27369276 5.86505609 -9.57855888 4.37333159 -6.42085266 1.14044189 C-4.05834805 -0.04081041 -2.63512377 0.00967473 0 0 Z " fill="#6864F7" transform="translate(158.4208526611328,132.85955810546875)"/>
<path d="M0 0 C1.68227188 -0.01913956 1.68227188 -0.01913956 3.39852905 -0.03866577 C4.605867 -0.04089142 5.81320496 -0.04311707 7.05712891 -0.04541016 C8.30241364 -0.05206696 9.54769836 -0.05872375 10.83071899 -0.06558228 C13.46525363 -0.07570883 16.0993756 -0.08126448 18.73388672 -0.08007812 C21.43044809 -0.07991539 24.12633153 -0.09382665 26.82275391 -0.12109375 C30.71359014 -0.1577369 34.60363734 -0.16755105 38.49462891 -0.17041016 C39.6979184 -0.18478119 40.90120789 -0.19915222 42.14096069 -0.21395874 C48.49451864 -0.17929441 52.65752855 -0.13434963 57.40869141 4.29052734 C59.76489578 7.8248339 59.89860754 9.12624021 59.40869141 13.29052734 C56.25079667 18.86947471 56.25079667 18.86947471 53.40869141 20.29052734 C51.49539869 20.4072518 49.57808691 20.46023441 47.66137695 20.48339844 C46.4564006 20.49946136 45.25142426 20.51552429 44.00993347 20.53207397 C38.49677679 20.57642215 32.98375158 20.61802822 27.47045898 20.640625 C24.55933184 20.65396163 21.64890613 20.68180768 18.73803711 20.72265625 C15.22135758 20.77200546 11.705314 20.79674847 8.18830299 20.80385208 C6.20014972 20.8138158 4.21216599 20.84805445 2.22428894 20.88265991 C-7.81787179 20.85909292 -7.81787179 20.85909292 -10.88891602 17.8828125 C-13.4195581 14.02932654 -14.04776969 11.94643057 -13.59130859 7.29052734 C-9.97909366 1.61418959 -6.58595507 0.05094124 0 0 Z " fill="#6A66F7" transform="translate(160.59130859375,222.70947265625)"/>
<path d="M0 0 C1.7774334 -0.02409439 1.7774334 -0.02409439 3.59077454 -0.04867554 C9.01234474 -0.09302853 14.43376918 -0.13462981 19.85546875 -0.15722656 C22.71809875 -0.17056268 25.58001533 -0.1984077 28.44238281 -0.23925781 C32.56221565 -0.29805256 36.6812832 -0.31588571 40.80151367 -0.33056641 C42.08185989 -0.35323578 43.36220612 -0.37590515 44.68135071 -0.39926147 C54.55792023 -0.37569458 54.55792023 -0.37569458 57.62841797 2.60058594 C60.17711646 6.45064719 60.88291628 8.52644436 60.34448242 13.19287109 C58.29144618 16.62516721 56.21582518 18.90242351 52.34448242 20.19287109 C50.49029122 20.30600636 48.63238998 20.36198727 46.77490234 20.38574219 C45.63329147 20.40180511 44.4916806 20.41786804 43.31547546 20.43441772 C38.09949587 20.47888799 32.88360263 20.52036119 27.66748047 20.54296875 C24.91551434 20.55630294 22.16429065 20.58414824 19.41259766 20.625 C15.44590303 20.68388035 11.47956781 20.70163797 7.51245117 20.71630859 C6.28415085 20.73897797 5.05585052 20.76164734 3.79032898 20.78500366 C-5.72678285 20.76143934 -5.72678285 20.76143934 -9.41601562 17.78515625 C-11.80296843 15.02219267 -12.54450777 14.00694301 -13.03051758 10.44287109 C-12.50835768 5.91748529 -10.8132238 4.42576079 -7.65551758 1.19287109 C-5.00579547 -0.13198996 -2.96734927 0.03647017 0 0 Z " fill="#6865F7" transform="translate(159.655517578125,358.80712890625)"/>
<path d="M0 0 C3.196875 -0.061875 6.39375 -0.12375 9.6875 -0.1875 C11.18543091 -0.22846802 11.18543091 -0.22846802 12.71362305 -0.27026367 C17.63856627 -0.31641175 21.01784091 -0.24384952 25 3 C27.38224928 5.38224928 27.32017149 6.0502037 27.375 9.3125 C27.30734437 12.81367898 27.05183283 13.91706748 25.125 17 C22.01510538 19.92695964 20.37527625 20.12274263 16.2109375 20.09765625 C15.26992188 20.09443359 14.32890625 20.09121094 13.359375 20.08789062 C11.88210938 20.07532227 11.88210938 20.07532227 10.375 20.0625 C9.38242187 20.05798828 8.38984375 20.05347656 7.3671875 20.04882812 C4.91143278 20.03702161 2.45570894 20.01908582 0 20 C0 13.4 0 6.8 0 0 Z " fill="#FEFEFE" transform="translate(356,309)"/>
<path d="M0 0 C3.37635286 -0.13541522 6.74723976 -0.23431111 10.125 -0.3125 C11.07632812 -0.35439453 12.02765625 -0.39628906 13.0078125 -0.43945312 C20.96994858 -0.57768465 20.96994858 -0.57768465 24.640625 2.23828125 C27.68586199 5.8028219 27.77087958 7.36517692 27.46484375 11.84375 C26.77428803 15.04700006 25.39175425 16.81325326 23 19 C20.11734851 19.96088383 18.32337729 20.11670941 15.33203125 20.09765625 C14.52741455 20.09515869 13.72279785 20.09266113 12.89379883 20.09008789 C11.36855591 20.07643188 11.36855591 20.07643188 9.8125 20.0625 C4.9553125 20.0315625 4.9553125 20.0315625 0 20 C0 13.4 0 6.8 0 0 Z " fill="#FEFDFE" transform="translate(356,259)"/>
<path d="M0 0 C3.37635286 -0.13541522 6.74723976 -0.23431111 10.125 -0.3125 C11.07632812 -0.35439453 12.02765625 -0.39628906 13.0078125 -0.43945312 C20.96994858 -0.57768465 20.96994858 -0.57768465 24.640625 2.23828125 C27.68586199 5.8028219 27.77087958 7.36517692 27.46484375 11.84375 C26.77428803 15.04700006 25.39175425 16.81325326 23 19 C20.11734851 19.96088383 18.32337729 20.11670941 15.33203125 20.09765625 C14.52741455 20.09515869 13.72279785 20.09266113 12.89379883 20.09008789 C11.36855591 20.07643188 11.36855591 20.07643188 9.8125 20.0625 C4.9553125 20.0315625 4.9553125 20.0315625 0 20 C0 13.4 0 6.8 0 0 Z " fill="#FEFDFE" transform="translate(356,209)"/>
</svg>
